<?xml version="1.0" encoding="utf-8"?>
<!-- Generator: Adobe Illustrator 29.4.0, SVG Export Plug-In . SVG Version: 9.03 Build 0)  -->
<svg version="1.0" id="레이어_1" xmlns="http://www.w3.org/2000/svg" xmlns:xlink="http://www.w3.org/1999/xlink" x="0px"
	 y="0px" viewBox="0 0 2000 2000" style="enable-background:new 0 0 2000 2000;" xml:space="preserve">
<style type="text/css">
	.st0{fill:#3182F6;}
</style>
<path class="st0" d="M519.28,1367.83h-112.9l-11.88-302.44h-21.4v302.44H259.63V559.75h125.96c27.33,0,50.9,2.88,70.71,8.62
	c19.8,5.75,35.15,15.95,46.04,30.6c10.9,14.66,16.35,35.85,16.35,63.58v305.98c0,16.64-2.39,30.7-7.15,42.19
	c-4.75,11.49-11.48,20.99-20.19,28.52L519.28,1367.83z M388.57,995.27c11.88,0,17.81-7.92,17.81-23.77V665.52
	c0-14.26-6.14-21.4-18.42-21.4h-14.85v351.15H388.57z"/>
<path class="st0" d="M542.95,1367.83V559.75h202.02v83.79h-82v290.54h64.77v65.35h-64.77v287h83.19v81.4H542.95z"/>
<path class="st0" d="M813.78,991.71c-14.66,0-26.04-1.88-34.17-5.65c-8.12-3.76-13.77-11.48-16.94-23.17
	c-3.17-11.68-4.75-29.21-4.75-52.58c0-26.15,1.58-45.56,4.75-58.23c3.17-12.68,8.81-21,16.94-24.96s19.71-5.94,34.75-5.94
	c15.05,0,26.54,1.98,34.46,5.94c7.93,3.96,13.48,12.28,16.65,24.96c3.17,12.67,4.75,32.08,4.75,58.23c0,23.38-1.58,40.91-4.75,52.58
	c-3.17,11.68-8.81,19.41-16.94,23.17C840.41,989.82,828.83,991.71,813.78,991.71z M813.78,1377.93c-14.66,0-26.04-1.89-34.17-5.65
	c-8.12-3.77-13.77-11.39-16.94-22.88c-3.17-11.48-4.75-29.11-4.75-52.9c0-26.14,1.58-45.54,4.75-58.21
	c3.17-12.68,8.81-21,16.94-24.96c8.12-3.97,19.71-5.96,34.75-5.96c15.05,0,26.54,1.99,34.46,5.96c7.93,3.96,13.48,12.28,16.65,24.96
	c3.17,12.67,4.75,32.07,4.75,58.21c0,23.78-1.58,41.41-4.75,52.9c-3.17,11.49-8.81,19.11-16.94,22.88
	C840.41,1376.05,828.83,1377.93,813.78,1377.93z"/>
<path class="st0" d="M893.29,1367.83V559.75H1024c45.96,0,78.84,6.74,98.65,20.21c19.8,13.47,29.71,34.86,29.71,64.17v252.52
	c0,15.85-2.78,29.81-8.33,41.9c-5.54,12.07-14.85,20.89-27.92,26.44c13.07,5.16,22.77,13.57,29.1,25.25
	c6.34,11.68,9.52,25.45,9.52,41.29v251.94c0,29.32-9.91,50.72-29.71,64.19c-19.81,13.46-52.69,20.19-98.65,20.19H893.29z
	 M1006.77,932.29h8.92c16.23,0,24.35-8.71,24.35-26.15V654.83c0-14.26-6.14-21.4-18.42-21.4h-14.85V932.29z M1006.77,1293.56h14.85
	c12.28,0,18.42-6.93,18.42-20.79V1022.6c0-17.43-8.12-26.15-24.35-26.15h-8.92V1293.56z"/>
<path class="st0" d="M1177.18,1247.81V675.04c0-40.42,11.69-71.32,35.06-92.71c23.38-21.39,57.84-32.08,103.4-32.08
	c92.29,0,138.44,42.98,138.44,128.94v568.63c0,86.35-46.15,129.52-138.44,129.52c-45.56,0-79.23-10.89-101.02-32.67
	C1192.84,1322.87,1180.36,1290.59,1177.18,1247.81z M1298.99,1261.48c0,11.49,5.55,17.23,16.65,17.23
	c11.08,0,16.62-5.74,16.62-17.23V666.12c0-11.48-5.54-17.23-16.62-17.23c-11.1,0-16.65,5.74-16.65,17.23V1261.48z"/>
<path class="st0" d="M1477.74,1367.83V559.75h123.58L1613.81,678l35.65,427.21h5.94l-19.6-545.46h104.58v808.08h-123.6
	l-13.06-117.65l-38.02-445.65h-7.15l22,563.29H1477.74z"/>
<path class="st0" d="M681.04,461.79v-25.31h0.31c3.39,9.39,7.92,18.08,13.39,25.31H681.04z M657.19,461.79
	c5.54-7.23,10.23-15.92,13.62-25.31h0.54v25.31H657.19z M710.04,436.48v-9.31h-29v-14.85h-9.7v14.85h-28.85v9.31h18.85
	c-4.77,11.62-12.62,22.62-21.54,28.78c2.15,1.69,5.08,5.16,6.69,7.46c3.08-2.46,6-5.31,8.69-8.46v6.85h16.16v13h9.7v-13h15.85v-6.69
	c2.54,3,5.23,5.69,8.15,7.92c1.62-2.54,4.85-6.16,7.23-8c-9-6.08-16.77-16.62-21.62-27.85H710.04z"/>
<path class="st0" d="M763.07,449.01c1.73,0,3.19,0.58,4.38,1.73c1.18,1.16,1.77,2.53,1.77,4.12c0,1.58-0.58,2.98-1.73,4.19
	c-1.16,1.21-2.62,1.81-4.42,1.81c-1.66,0-3.1-0.57-4.33-1.73c-1.22-1.15-1.83-2.53-1.83-4.12c0-1.64,0.6-3.05,1.81-4.23
	C759.93,449.61,761.37,449.01,763.07,449.01z"/>
<path class="st0" d="M841.88,422.93c4.97,0,8.94,1.25,11.92,3.75c2.97,2.49,4.46,5.81,4.46,9.96c0,2.82-0.81,5.27-2.42,7.35
	c-1.61,2.07-3.96,3.59-7.04,4.56v0.17c3.33,0.41,6.12,1.8,8.38,4.19c2.26,2.39,3.4,5.38,3.4,8.96c0,4.93-1.8,8.76-5.4,11.48
	c-3.58,2.71-8.53,4.06-14.83,4.06h-20v-54.48H841.88z M839.19,445.1c2.92,0,5.21-0.61,6.88-1.83c1.67-1.23,2.5-2.91,2.5-5.02
	c0-4.67-3.39-7-10.15-7h-8.4v13.85H839.19z M839.26,469.1c7.75,0,11.62-2.67,11.62-8c0-2.76-0.93-4.73-2.77-5.92
	c-1.85-1.18-4.62-1.77-8.31-1.77h-9.77v15.69H839.26z"/>
<path class="st0" d="M923.13,450.1c0,8.46-2.74,15.35-8.21,20.69c-5.46,5.33-12.45,8-20.96,8c-8.36,0-15.22-2.62-20.58-7.88
	c-5.36-5.26-8.04-12.09-8.04-20.5c0-5.54,1.19-10.51,3.58-14.9c2.39-4.39,5.8-7.81,10.23-10.27c4.44-2.46,9.56-3.69,15.35-3.69
	c8.46,0,15.34,2.59,20.65,7.77C920.47,434.51,923.13,441.43,923.13,450.1z M875.5,449.78c0,5.91,1.73,10.75,5.19,14.54
	s7.96,5.69,13.5,5.69c5.48,0,9.98-1.85,13.5-5.56c3.51-3.72,5.27-8.61,5.27-14.67c0-5.58-1.74-10.22-5.23-13.92
	c-3.49-3.69-8.02-5.54-13.6-5.54c-5.29,0-9.72,1.82-13.29,5.46C877.28,439.43,875.5,444.09,875.5,449.78z"/>
<path class="st0" d="M949.67,422.93c6.51,0,11.47,1.35,14.88,4.04c3.42,2.7,5.12,6.56,5.12,11.58c0,4.1-1.15,7.45-3.44,10.04
	c-2.28,2.58-5.33,4.16-9.17,4.73l14.46,24.08h-11.71l-12.6-23.08h-7.08v23.08h-9.69v-54.48H949.67z M948.12,446.01
	c4.21,0,7.16-0.62,8.85-1.88c1.69-1.26,2.54-3.15,2.54-5.67c0-4.82-3.57-7.23-10.71-7.23h-8.69v14.77H948.12z"/>
<path class="st0" d="M989.82,422.93l26.4,40.48h0.17v-40.48h9.69v54.48h-12.31l-26.94-41.77h-0.15v41.77h-9.69v-54.48H989.82z"/>
<path class="st0" d="M1083.33,449.01c1.73,0,3.19,0.58,4.38,1.73c1.18,1.16,1.77,2.53,1.77,4.12c0,1.58-0.58,2.98-1.73,4.19
	c-1.16,1.21-2.62,1.81-4.42,1.81c-1.66,0-3.1-0.57-4.33-1.73c-1.22-1.15-1.83-2.53-1.83-4.12c0-1.64,0.6-3.05,1.81-4.23
	C1080.19,449.61,1081.63,449.01,1083.33,449.01z"/>
<path class="st0" d="M1162.14,422.93c4.97,0,8.94,1.25,11.92,3.75c2.97,2.49,4.46,5.81,4.46,9.96c0,2.82-0.81,5.27-2.42,7.35
	c-1.61,2.07-3.96,3.59-7.04,4.56v0.17c3.33,0.41,6.12,1.8,8.38,4.19c2.26,2.39,3.4,5.38,3.4,8.96c0,4.93-1.8,8.76-5.4,11.48
	c-3.58,2.71-8.53,4.06-14.83,4.06h-20v-54.48H1162.14z M1159.45,445.1c2.92,0,5.21-0.61,6.88-1.83c1.67-1.23,2.5-2.91,2.5-5.02
	c0-4.67-3.39-7-10.15-7h-8.4v13.85H1159.45z M1159.51,469.1c7.75,0,11.62-2.67,11.62-8c0-2.76-0.93-4.73-2.77-5.92
	c-1.85-1.18-4.62-1.77-8.31-1.77h-9.77v15.69H1159.51z"/>
<path class="st0" d="M1243.38,450.1c0,8.46-2.74,15.35-8.21,20.69c-5.46,5.33-12.45,8-20.96,8c-8.36,0-15.22-2.62-20.58-7.88
	c-5.36-5.26-8.04-12.09-8.04-20.5c0-5.54,1.19-10.51,3.58-14.9c2.39-4.39,5.8-7.81,10.23-10.27c4.44-2.46,9.56-3.69,15.35-3.69
	c8.46,0,15.34,2.59,20.65,7.77C1240.72,434.51,1243.38,441.43,1243.38,450.1z M1195.76,449.78c0,5.91,1.73,10.75,5.19,14.54
	s7.96,5.69,13.5,5.69c5.48,0,9.98-1.85,13.5-5.56c3.51-3.72,5.27-8.61,5.27-14.67c0-5.58-1.74-10.22-5.23-13.92
	c-3.49-3.69-8.02-5.54-13.6-5.54c-5.29,0-9.72,1.82-13.29,5.46C1197.53,439.43,1195.76,444.09,1195.76,449.78z"/>
<path class="st0" d="M1263.53,422.93l26.4,40.48h0.17v-40.48h9.69v54.48h-12.31l-26.94-41.77h-0.15v41.77h-9.69v-54.48H1263.53z"/>
<path class="st0" d="M1331.7,422.93c5.18,0,9.89,1.14,14.12,3.4c4.23,2.25,7.52,5.42,9.85,9.5c2.33,4.08,3.5,8.87,3.5,14.35
	c0,5.43-1.3,10.18-3.9,14.23c-2.58,4.06-6.1,7.24-10.54,9.54c-4.43,2.31-9.16,3.46-14.19,3.46h-20.54v-54.48H1331.7z
	 M1327.32,468.64c6.76,0,12.07-1.61,15.92-4.83c3.84-3.23,5.77-7.78,5.77-13.62c0-6-1.76-10.57-5.27-13.73
	c-3.52-3.17-8.56-4.75-15.12-4.75h-8.92v36.94H1327.32z"/>
</svg>
